<svg preserveAspectRatio="none" width="100%" height="100%" overflow="visible" style="display: block;" viewBox="0 0 12 16" fill="none" xmlns="http://www.w3.org/2000/svg">
<path id="Primary" d="M2 1.5H5.5V4.25C5.5 5.49375 6.50625 6.5 7.75 6.5H10.5V14C10.5 14.275 10.275 14.5 10 14.5H2C1.725 14.5 1.5 14.275 1.5 14V2C1.5 1.725 1.725 1.5 2 1.5ZM7 2.12188L9.87813 5H7.75C7.33437 5 7 4.66563 7 4.25V2.12188ZM2 0C0.896875 0 0 0.896875 0 2V14C0 15.1031 0.896875 16 2 16H10C11.1031 16 12 15.1031 12 14V5.82812C12 5.29688 11.7906 4.7875 11.4156 4.4125L7.58437 0.584375C7.20937 0.209375 6.70312 0 6.17188 0H2ZM3.75 8C3.33437 8 3 8.33437 3 8.75C3 9.16563 3.33437 9.5 3.75 9.5H8.25C8.66563 9.5 9 9.16563 9 8.75C9 8.33437 8.66563 8 8.25 8H3.75ZM3.75 11C3.33437 11 3 11.3344 3 11.75C3 12.1656 3.33437 12.5 3.75 12.5H8.25C8.66563 12.5 9 12.1656 9 11.75C9 11.3344 8.66563 11 8.25 11H3.75Z" fill="var(--fill-0, #3C3C43)" fill-opacity="0.6"/>
</svg>
