<svg preserveAspectRatio="none" width="100%" height="100%" overflow="visible" style="display: block;" viewBox="0 0 17 12" fill="none" xmlns="http://www.w3.org/2000/svg">
<path id="Primary" d="M2 1.5C1.725 1.5 1.5 1.725 1.5 2V10C1.5 10.275 1.725 10.5 2 10.5H15C15.275 10.5 15.5 10.275 15.5 10V2C15.5 1.725 15.275 1.5 15 1.5H2ZM0 2C0 0.896875 0.896875 0 2 0H15C16.1031 0 17 0.896875 17 2V10C17 11.1031 16.1031 12 15 12H2C0.896875 12 0 11.1031 0 10V2ZM4.25 4.75V7.25C4.25 7.3875 4.3625 7.5 4.5 7.5H5C5.1375 7.5 5.25 7.3875 5.25 7.25V6.25C5.25 5.83437 5.58437 5.5 6 5.5C6.41563 5.5 6.75 5.83437 6.75 6.25V7.25C6.75 8.21562 5.96562 9 5 9H4.5C3.53438 9 2.75 8.21562 2.75 7.25V4.75C2.75 3.78438 3.53438 3 4.5 3H5.75C6.16563 3 6.5 3.33437 6.5 3.75C6.5 4.16563 6.16563 4.5 5.75 4.5H4.5C4.3625 4.5 4.25 4.6125 4.25 4.75ZM8.75 3C9.16563 3 9.5 3.33437 9.5 3.75V8.25C9.5 8.66563 9.16563 9 8.75 9C8.33437 9 8 8.66563 8 8.25V3.75C8 3.33437 8.33437 3 8.75 3ZM11.5 3H14C14.4156 3 14.75 3.33437 14.75 3.75C14.75 4.16563 14.4156 4.5 14 4.5H12.25V5.5H13.5C13.9156 5.5 14.25 5.83437 14.25 6.25C14.25 6.66563 13.9156 7 13.5 7H12.25V8.25C12.25 8.66563 11.9156 9 11.5 9C11.0844 9 10.75 8.66563 10.75 8.25V3.75C10.75 3.33437 11.0844 3 11.5 3Z" fill="var(--fill-0, black)"/>
</svg>
