<svg preserveAspectRatio="none" width="100%" height="100%" overflow="visible" style="display: block;" viewBox="0 0 20 16" fill="none" xmlns="http://www.w3.org/2000/svg">
<g id="Layer_1" clip-path="url(#clip0_0_40)">
<path id="Vector" d="M19.2188 11.9045C18.6935 12.5749 17.8352 12.7038 16.9947 12.7668C15.5648 12.8731 14.1551 12.8762 12.7185 12.7531C11.4694 12.646 10.2864 12.422 9.06495 12.1828C8.34586 12.0417 7.65011 11.9589 6.92904 12.073C6.89146 12.0792 6.85587 12.1187 6.85705 12.1426C6.85824 12.1758 6.89423 12.1965 6.94407 12.1922C7.51839 12.1414 8.07768 12.1273 8.64924 12.2379C9.89716 12.4791 11.098 12.7097 12.3879 12.8528C13.6955 12.9982 14.9454 12.9708 16.2254 12.9653C16.4651 12.9642 16.6427 12.9841 16.8733 12.9321C17.3681 12.8211 17.8779 12.8367 18.3589 12.6612C18.5757 13.1123 18.5682 13.4543 18.1544 13.7005C17.8325 13.8921 17.4777 13.9824 17.0983 13.9812L14.6084 13.9745C13.6793 13.9718 12.7779 13.9538 11.865 13.7822L9.31176 13.303C8.52306 13.1549 7.74701 13.0748 6.94407 13.1049C6.66878 13.1154 6.4184 13.1631 6.16328 13.0537C5.96472 12.9689 5.77605 12.8203 5.7622 12.5823C5.73847 12.1867 5.89866 11.7732 6.21628 11.5238C6.83411 11.0388 7.98157 11.1595 8.72439 11.3014L12.001 11.9264C12.8906 12.0961 13.7485 12.1551 14.6571 12.1742C16.0873 12.2043 17.4484 11.9421 18.7422 11.3444C18.8407 11.2987 18.9669 11.2405 19.0729 11.2803C19.3276 11.3757 19.3845 11.6927 19.2188 11.9045Z" fill="var(--fill-0, black)"/>
<path id="Vector_2" d="M19.9494 5.43535C18.3395 4.56841 16.7882 4.19983 15.0336 4.91824C14.574 5.10663 14.1591 5.3478 13.8316 5.71912C13.7691 5.58388 13.8379 5.33099 13.6726 5.25008C12.5307 4.69193 10.6301 4.23462 9.41975 4.6462C8.68919 4.89439 7.41516 5.44356 6.93339 6.06737C6.65928 5.95754 6.38953 5.90712 6.09287 5.97982C5.93149 6.01969 5.64829 5.95637 5.65224 5.75038C5.65897 5.43652 6.42236 5.61085 7.14303 5.35209C7.46816 5.23523 7.85658 5.1723 8.14493 4.97608C8.82011 4.51643 9.5475 4.24712 10.3896 4.21429C11.3828 4.17599 12.3424 4.37572 13.2711 4.71694C13.3664 4.75173 13.4012 4.55669 13.4582 4.53128C14.2797 4.16309 15.1341 3.95749 16.0403 3.87033C17.1529 3.76284 18.2426 3.90473 19.2683 4.31083C19.487 4.39722 19.646 4.57897 19.6013 4.82834C17.7707 3.86603 15.3904 4.05834 13.5211 4.7443C13.4871 4.75642 13.4633 4.78847 13.455 4.80371C13.4459 4.8213 13.459 4.8557 13.4752 4.86234C13.4942 4.87016 13.531 4.8772 13.567 4.8643C14.9059 4.38041 16.3239 4.17599 17.7419 4.37611C18.5318 4.4875 19.2596 4.73062 19.9003 5.17425C19.9869 5.23445 20.0479 5.31731 19.9494 5.43535Z" fill="var(--fill-0, black)"/>
<path id="Vector_3" d="M16.9915 2.80445C15.337 2.41319 13.7105 2.49527 12.0406 2.82125C11.9128 2.23808 11.6886 1.72332 11.3164 1.2277C12.2961 0.694565 13.6334 0.220838 14.7734 0.354904C16.1328 0.519458 16.7621 1.52437 16.9915 2.80445Z" fill="var(--fill-0, black)"/>
<path id="Vector_4" d="M18.8775 4.02238C17.0979 3.48846 15.2579 3.65301 13.4942 4.36243C13.4578 4.13651 13.3328 3.95476 13.1066 3.88831C12.9483 3.78043 12.7086 3.80037 12.5651 3.67803L11.7902 3.01629C13.4772 2.62582 15.3738 2.52615 17.0141 2.95297C17.6924 3.12964 18.3059 3.41615 18.8743 3.81248C18.9348 3.8547 18.9364 4.00362 18.8775 4.02238Z" fill="var(--fill-0, black)"/>
<path id="Vector_5" d="M19.6056 6.78287C17.9154 7.27027 15.2859 7.6244 13.6768 6.88566C13.6915 7.16279 13.6025 7.32812 13.4332 7.47821C12.7544 8.15011 10.2744 8.05161 9.38168 7.9492C8.54473 7.85266 7.76275 7.58961 7.05078 7.17686C7.00648 7.15106 6.99263 7.09165 7.00727 7.06859C7.02665 7.0381 7.07728 7.03849 7.12474 7.06624C8.00521 7.58062 8.99762 7.83546 10.028 7.87416C10.8452 7.90504 11.6276 7.89956 12.4254 7.7655C12.8917 7.68733 13.8093 7.34415 13.464 6.77622C12.7972 7.0979 12.1236 7.36604 11.3728 7.4317C10.5121 7.50753 9.65026 7.479 8.81369 7.26363C8.10845 7.08227 7.50248 6.70039 6.93251 6.2767C6.82374 6.19579 6.70785 6.05938 6.55161 6.10706C6.37401 6.16139 6.21738 6.13599 6.04215 6.12387C5.90174 6.11449 5.79929 6.12778 5.67035 6.02342C5.58017 5.95033 5.44924 5.83737 5.51134 5.69744C5.7194 5.23153 6.24863 5.53797 7.18012 5.20339C7.47994 5.0959 7.83197 5.03297 8.09539 4.85278C8.78324 4.38218 9.5312 4.11874 10.3911 4.08278C11.3582 4.04252 12.3245 4.23717 13.2366 4.56823C13.3402 4.5139 13.3612 4.3642 13.3343 4.26805C13.3106 4.18402 13.239 4.08708 13.1393 4.04409C12.4503 3.74625 11.7367 3.62664 10.9769 3.63915C7.59702 3.69465 8.8841 4.56393 6.27394 5.09551C6.22054 5.10645 6.18692 5.0529 6.18534 5.0275C6.18376 5.00366 6.18969 4.98216 6.23043 4.97317C6.7652 4.85904 7.2794 4.72223 7.74376 4.43612C8.11834 4.2059 8.44228 3.89399 8.87777 3.76735C9.96866 3.44997 11.0936 3.46092 12.2608 3.60163C11.0196 2.40832 9.38406 1.73135 7.67138 2.20585C7.05078 2.37666 6.50098 2.66199 5.99469 3.05325C5.96147 3.07904 5.89897 3.01455 5.91479 2.99735C5.92508 2.98602 5.91677 2.94654 5.94683 2.92348C7.64211 1.63285 9.70484 1.58985 11.4784 2.80427C11.5761 2.8711 11.8364 2.9825 11.8756 2.81326C11.8582 2.45874 11.6813 2.10345 11.5152 1.78646C11.0592 0.915614 10.2578 0.316811 9.28557 0.111217C8.7243 -0.00721458 8.16105 -0.0408288 7.59267 0.0596231C4.61228 0.586898 3.19309 3.34796 2.9174 6.08361C2.91266 6.13012 2.8731 6.15983 2.84897 6.15709C2.67573 6.13521 3.00363 4.80275 3.04477 4.56433C2.49734 4.65852 2.06541 4.97043 1.7478 5.38827C1.42781 5.80884 1.18059 6.25129 0.9761 6.74613C0.544568 7.78973 0.195308 8.85562 0.0426298 9.9813C-0.0522994 10.6786 0.0295771 11.3669 0.12332 12.0533C0.193725 12.5673 0.338493 13.0414 0.551292 13.5038C0.740755 13.9153 1.03266 14.2245 1.43018 14.4504C3.75476 15.7731 9.04666 16.0901 11.7411 15.9799C13.489 15.8435 15.3927 15.29 16.7391 14.1221L14.2302 14.0955C13.4367 14.0869 12.6761 14.0275 11.887 13.9212L9.70128 13.5042C8.81092 13.3341 7.93164 13.2118 7.02507 13.2321C6.72723 13.2388 6.45866 13.288 6.17862 13.2008C5.79573 13.0816 5.5861 12.7818 5.62763 12.3879C5.69883 11.712 6.16873 11.2172 6.86408 11.105C7.47242 11.0069 8.09104 11.0484 8.7152 11.168L11.9547 11.7879C12.9376 11.9763 13.89 12.047 14.8947 12.0466C16.2811 12.0458 17.6077 11.7566 18.8378 11.1519C18.9324 10.1685 18.1009 9.2027 17.3941 8.63009C16.6889 8.83295 16.0085 8.85327 15.2748 8.79073C15.3713 8.95646 15.5347 9.00063 15.6818 9.08193C15.6826 9.38954 15.0608 8.82357 14.9995 8.7407C14.8765 8.70709 13.9078 8.50071 14.0391 8.36469C14.0554 8.34749 14.0866 8.32951 14.1353 8.34867C15.2716 8.79464 16.5579 8.82122 17.7006 8.3815C18.2461 8.17161 18.661 7.80771 18.9043 7.30154C19.1072 7.26676 19.9129 7.09595 19.6056 6.78287ZM6.30005 14.0975C6.3131 14.1163 6.29886 14.1807 6.25614 14.1784C4.99161 14.1018 4.67557 13.0554 4.82904 13.0054C4.97658 12.9577 4.86543 13.4776 5.51925 13.8423C5.88315 14.0455 6.24823 14.0221 6.30005 14.0975ZM12.2394 8.21304C11.6161 8.70787 10.4663 9.0616 9.67715 9.23554C9.62811 9.24648 9.59053 9.20544 9.58816 9.17495C9.58657 9.15189 9.61189 9.11789 9.65856 9.10733C10.4488 8.93379 11.5556 8.5824 12.2015 8.08053C12.226 8.06177 12.2818 8.10086 12.283 8.11688C12.2845 8.14112 12.2731 8.18646 12.2394 8.21304Z" fill="var(--fill-0, black)"/>
<path id="Vector_6" d="M10.8461 4.90729C10.5447 4.73336 10.2413 4.70287 9.91575 4.73727C9.9027 4.73844 9.88964 4.74 9.87659 4.74157C9.86117 4.74313 9.84614 4.74508 9.83071 4.74704C9.81607 4.74938 9.80144 4.75134 9.7872 4.75368C9.75714 4.75798 9.72668 4.76306 9.69623 4.76854C9.66893 4.77323 9.64164 4.77831 9.61395 4.78339C9.55344 4.79511 9.49173 4.8084 9.42924 4.82208C9.4146 4.83537 9.39957 4.84827 9.38494 4.86078C9.3703 4.87368 9.35567 4.88619 9.34103 4.8983C9.28882 4.94247 9.2374 4.98468 9.18875 5.0269C9.1753 5.03862 9.16185 5.05035 9.1488 5.06207C9.12032 5.08748 9.09303 5.11367 9.06732 5.14064C9.06099 5.14728 9.05466 5.15354 9.04873 5.16057C9.0424 5.16683 9.03647 5.17386 9.03054 5.18051C9.0246 5.18715 9.01867 5.19419 9.01274 5.20122C8.99533 5.22194 8.97912 5.24343 8.96369 5.2661C8.95973 5.27119 8.95617 5.27627 8.95301 5.28174C8.91623 5.33724 8.88616 5.39861 8.86362 5.46857C8.6081 6.06737 8.64212 6.91398 9.40234 7.11958C10.1424 7.3197 11.206 7.1872 11.454 6.34059C11.6205 5.77227 11.3516 5.19809 10.8461 4.90729ZM9.74211 6.09513C9.65944 6.09513 9.5926 6.02907 9.5926 5.94738C9.5926 5.86569 9.65944 5.79963 9.74211 5.79963C9.82478 5.79963 9.89202 5.86569 9.89202 5.94738C9.89202 6.02907 9.82478 6.09513 9.74211 6.09513ZM9.70691 5.40916C9.60288 5.40916 9.51863 5.32591 9.51863 5.22311C9.51863 5.12031 9.60288 5.03745 9.70691 5.03745C9.81093 5.03745 9.89479 5.1207 9.89479 5.22311C9.89479 5.32552 9.81054 5.40916 9.70691 5.40916ZM10.6641 5.84654C10.5656 5.90673 10.4387 5.90712 10.3429 5.84302C10.2464 5.77853 10.1594 5.61671 10.2571 5.49984C10.3607 5.37594 10.6483 5.37359 10.748 5.51508C10.8417 5.64798 10.7551 5.79064 10.6641 5.84654Z" fill="var(--fill-0, black)"/>
<g id="Group">
<path id="Vector_7" d="M9.41539 4.82529C9.42568 4.81903 9.43557 4.81317 9.44585 4.80692C9.44031 4.81239 9.43478 4.81747 9.42924 4.82216C9.42449 4.82333 9.42014 4.82412 9.41539 4.82529Z" fill="var(--fill-0, black)"/>
<path id="Vector_8" d="M17.8143 5.52056C17.6153 5.08474 17.1917 4.84866 16.7174 4.80879C16.0308 4.75095 15.4885 5.19419 15.4007 5.86843C15.3595 6.18581 15.3663 6.53016 15.5984 6.77601C15.9975 7.19814 17.0212 7.17704 17.4951 6.83347C17.9123 6.53094 18.0278 5.98803 17.8143 5.52056ZM16.3104 6.0748C16.2349 6.0748 16.1736 6.01461 16.1736 5.93995C16.1736 5.8653 16.2349 5.80471 16.3104 5.80471C16.386 5.80471 16.4469 5.8653 16.4469 5.93995C16.4469 6.01461 16.386 6.0748 16.3104 6.0748ZM16.2768 5.4416C16.1819 5.4416 16.1051 5.36538 16.1051 5.27158C16.1051 5.17777 16.1819 5.10155 16.2768 5.10155C16.3717 5.10155 16.4489 5.17777 16.4489 5.27158C16.4489 5.36538 16.3721 5.4416 16.2768 5.4416ZM17.1494 5.84732C17.0576 5.90087 16.9504 5.89969 16.8689 5.8481C16.7728 5.78673 16.6961 5.64798 16.7803 5.53306C16.8717 5.40799 17.1497 5.40721 17.2387 5.55261C17.3175 5.68081 17.2304 5.80042 17.1494 5.84732Z" fill="var(--fill-0, black)"/>
</g>
</g>
<defs>
<clipPath id="clip0_0_40">
<rect width="20" height="16" fill="white"/>
</clipPath>
</defs>
</svg>
