<svg preserveAspectRatio="none" width="100%" height="100%" overflow="visible" style="display: block;" viewBox="0 0 12 16.0938" fill="none" xmlns="http://www.w3.org/2000/svg">
<path id="Primary" d="M1.5 5.89375C1.5 3.49063 3.49062 1.5 6 1.5C8.50938 1.5 10.5 3.49063 10.5 5.89375C10.5 7.31875 9.75625 9.06563 8.65938 10.8031C7.775 12.2031 6.75313 13.4531 6 14.3062C5.24687 13.4531 4.22813 12.2063 3.34063 10.8031C2.24375 9.06875 1.5 7.31875 1.5 5.89375ZM6 0C2.6875 0 0 2.6375 0 5.89375C0 9.62188 3.75625 14.0906 5.325 15.7937C5.69375 16.1937 6.30625 16.1937 6.675 15.7937C8.24375 14.0906 12 9.62188 12 5.89375C12 2.6375 9.3125 0 6 0ZM5 6C5 5.73478 5.10536 5.48043 5.29289 5.29289C5.48043 5.10536 5.73478 5 6 5C6.26522 5 6.51957 5.10536 6.70711 5.29289C6.89464 5.48043 7 5.73478 7 6C7 6.26522 6.89464 6.51957 6.70711 6.70711C6.51957 6.89464 6.26522 7 6 7C5.73478 7 5.48043 6.89464 5.29289 6.70711C5.10536 6.51957 5 6.26522 5 6ZM8.5 6C8.5 5.33696 8.23661 4.70107 7.76777 4.23223C7.29893 3.76339 6.66304 3.5 6 3.5C5.33696 3.5 4.70107 3.76339 4.23223 4.23223C3.76339 4.70107 3.5 5.33696 3.5 6C3.5 6.66304 3.76339 7.29893 4.23223 7.76777C4.70107 8.23661 5.33696 8.5 6 8.5C6.66304 8.5 7.29893 8.23661 7.76777 7.76777C8.23661 7.29893 8.5 6.66304 8.5 6Z" fill="var(--fill-0, #3C3C43)" fill-opacity="0.6"/>
</svg>
