<svg preserveAspectRatio="none" width="100%" height="100%" overflow="visible" style="display: block;" viewBox="0 0 22.3438 24.0625" fill="none" xmlns="http://www.w3.org/2000/svg">
<path id="Primary" d="M2.57812 1.28906C2.57812 0.574707 3.15283 0 3.86719 0H18.4766C19.1909 0 19.7656 0.574707 19.7656 1.28906C19.7656 2.00342 19.1909 2.57812 18.4766 2.57812H3.86719C3.15283 2.57812 2.57812 2.00342 2.57812 1.28906ZM0 6.44531C0 5.73096 0.574707 5.15625 1.28906 5.15625H21.0547C21.769 5.15625 22.3438 5.73096 22.3438 6.44531C22.3438 7.15967 21.769 7.73438 21.0547 7.73438H1.28906C0.574707 7.73438 0 7.15967 0 6.44531ZM14.6094 15.4688C15.0068 15.4688 15.3774 15.6514 15.6245 15.9629L20.3511 21.9785C20.6572 22.3652 20.7109 22.897 20.4961 23.3374C20.2813 23.7778 19.8301 24.0625 19.3359 24.0625H6.44531C5.96729 24.0625 5.52148 23.7939 5.30127 23.3696C5.08105 22.9453 5.11328 22.4297 5.38721 22.0376L8.39502 17.7407C8.63672 17.397 9.02881 17.1929 9.45312 17.1929C9.87744 17.1929 10.2695 17.397 10.5112 17.7407L11.3062 18.8794L13.5942 15.9629C13.8413 15.6514 14.2119 15.4688 14.6094 15.4688Z" fill="var(--fill-0, black)"/>
</svg>
