<svg preserveAspectRatio="none" width="100%" height="100%" overflow="visible" style="display: block;" viewBox="0 0 14 14" fill="none" xmlns="http://www.w3.org/2000/svg">
<path id="Primary" d="M7.75 0.75C7.75 0.334375 7.41563 0 7 0C6.58437 0 6.25 0.334375 6.25 0.75V6.25H0.75C0.334375 6.25 0 6.58437 0 7C0 7.41563 0.334375 7.75 0.75 7.75H6.25V13.25C6.25 13.6656 6.58437 14 7 14C7.41563 14 7.75 13.6656 7.75 13.25V7.75H13.25C13.6656 7.75 14 7.41563 14 7C14 6.58437 13.6656 6.25 13.25 6.25H7.75V0.75Z" fill="var(--fill-0, #3C3C43)" fill-opacity="0.6"/>
</svg>
