<svg preserveAspectRatio="none" width="100%" height="100%" overflow="visible" style="display: block;" viewBox="0 0 20.0031 15.9601" fill="none" xmlns="http://www.w3.org/2000/svg">
<path id="Primary" d="M7.4125 1.54495L7.04375 1.56683C6.40938 1.6012 5.9 2.11058 5.86563 2.74495L5.84375 3.1137L6.2125 3.09183C6.84688 3.05745 7.35625 2.54808 7.39062 1.9137L7.4125 1.54495ZM1.35 5.50745C0.99375 4.56058 1.04688 3.46683 1.59375 2.51995L2.2375 1.40433C2.43437 1.0637 2.86875 0.948076 3.20625 1.14495C3.70312 1.43245 4.10938 1.8137 4.41875 2.25433C4.66875 1.0512 5.7 0.138701 6.95938 0.0668258L8.16563 0.00120077C8.6125 -0.0237992 8.98125 0.344951 8.95625 0.791826L8.89062 1.99808C8.8125 3.39808 7.69687 4.5137 6.29688 4.59183L5.52813 4.63558C4.86563 5.60745 4.50313 6.7637 4.50313 7.95745C4.50313 10.995 6.96563 13.4575 10.0031 13.4575H10.3656C11.725 13.4575 13.0625 13.7731 14.2781 14.3825L14.5875 14.5387C14.9594 14.7231 15.1094 15.1731 14.9219 15.545C14.7344 15.9168 14.2875 16.0668 13.9156 15.8793L13.6062 15.7231C12.6 15.2168 11.4906 14.9543 10.3656 14.9543H9.64375C8.51875 14.9543 7.40938 15.2168 6.4 15.72L6.09063 15.8762C5.71875 16.0606 5.26875 15.9106 5.08438 15.5418C4.9 15.1731 5.05 14.72 5.41875 14.5356L5.72813 14.3793C5.9875 14.2481 6.25313 14.1325 6.52188 14.0293C6.35 13.9325 6.18438 13.8262 6.025 13.7137L5.875 13.8012L5.86563 13.8075C5.72188 13.8918 5.57188 13.9606 5.42188 14.0231C3.83125 14.6606 1.975 14.0481 1.09375 12.5231L0.446875 11.4043C0.25 11.0637 0.365625 10.6293 0.70625 10.4356C0.89375 10.3262 1.0875 10.2356 1.28437 10.1637C0.5 9.52308 0 8.54808 0 7.45433V6.16683C0 5.77308 0.31875 5.45745 0.709375 5.45745C0.928125 5.45745 1.14062 5.4762 1.34687 5.51058L1.35 5.50745ZM13.0469 0.0668258C14.3062 0.135576 15.3375 1.0512 15.5875 2.25433C15.8969 1.8137 16.3031 1.43245 16.8 1.14495C17.1406 0.948076 17.575 1.0637 17.7687 1.40433L18.4125 2.51995C18.9594 3.46683 19.0125 4.56058 18.6562 5.50745C18.8625 5.47308 19.075 5.45433 19.2937 5.45433C19.6875 5.45433 20.0031 5.77308 20.0031 6.1637V7.4512C20.0031 8.54183 19.5031 9.51683 18.7188 10.1606C18.9156 10.2325 19.1094 10.3231 19.2969 10.4325C19.6375 10.6293 19.7531 11.0637 19.5562 11.4012L18.9125 12.5168C18.2375 13.6856 16.9906 14.3168 15.7312 14.2637C15.5656 14.0043 15.3313 13.7825 15.0344 13.6356L14.725 13.4793C14.3156 13.2762 13.8937 13.1012 13.4656 12.9575C13.2187 12.8731 12.9687 12.8012 12.7156 12.7387C14.3812 11.795 15.5063 10.0043 15.5063 7.9512C15.5063 6.75745 15.1437 5.6012 14.4812 4.62933L13.7125 4.58558C12.3125 4.50745 11.1969 3.39183 11.1188 1.99183L11.05 0.791826C11.025 0.344951 11.3937 -0.0237992 11.8406 0.00120077L13.0469 0.0668258ZM12.9625 1.5637L12.5938 1.54183L12.6156 1.91058C12.65 2.54495 13.1594 3.05433 13.7937 3.0887L14.1625 3.11058L14.1406 2.74183C14.1062 2.10745 13.5969 1.59808 12.9625 1.5637ZM3.00312 9.3887V9.24183C3.00312 8.25433 2.37812 7.4137 1.50312 7.09183V7.4512C1.50312 8.38245 2.14062 9.16683 3.00312 9.3887ZM17.0062 9.24183V9.3887C17.8687 9.16683 18.5062 8.38245 18.5062 7.4512V7.09183C17.6312 7.4137 17.0062 8.25433 17.0062 9.24183ZM4.65938 12.6981L4.58438 12.57C4.09063 11.7168 3.13125 11.3012 2.2125 11.4575L2.39062 11.7668C2.85625 12.5731 3.8 12.9325 4.65625 12.695L4.65938 12.6981ZM3.29688 5.56995C3.79063 4.71683 3.66875 3.6762 3.07187 2.96058L2.89375 3.26995C2.42812 4.0762 2.5875 5.07308 3.225 5.69808L3.3 5.56995H3.29688ZM16.7844 5.69808C17.4187 5.07308 17.5812 4.07933 17.1156 3.26995L16.9375 2.96058C16.3406 3.6762 16.2219 4.71683 16.7125 5.56995L16.7875 5.69808H16.7844ZM15.35 12.6981C16.2063 12.9356 17.15 12.5762 17.6156 11.77L17.7937 11.4606C16.875 11.3012 15.9156 11.7168 15.4219 12.5731L15.3469 12.7012L15.35 12.6981Z" fill="var(--fill-0, black)"/>
</svg>
