<svg preserveAspectRatio="none" width="100%" height="100%" overflow="visible" style="display: block;" viewBox="0 0 11.25 11.25" fill="none" xmlns="http://www.w3.org/2000/svg">
<path id="Primary" d="M5.625 11.25C7.11684 11.25 8.54758 10.6574 9.60248 9.60248C10.6574 8.54758 11.25 7.11684 11.25 5.625C11.25 4.13316 10.6574 2.70242 9.60248 1.64752C8.54758 0.592632 7.11684 0 5.625 0C4.13316 0 2.70242 0.592632 1.64752 1.64752C0.592632 2.70242 0 4.13316 0 5.625C0 7.11684 0.592632 8.54758 1.64752 9.60248C2.70242 10.6574 4.13316 11.25 5.625 11.25ZM3.75 5.9375C3.75 6.45703 3.33203 6.875 2.8125 6.875C2.29297 6.875 1.875 6.45703 1.875 5.9375C1.875 3.69531 3.69531 1.875 5.9375 1.875C6.45703 1.875 6.875 2.29297 6.875 2.8125C6.875 3.33203 6.45703 3.75 5.9375 3.75C4.73047 3.75 3.75 4.73047 3.75 5.9375Z" fill="var(--fill-0, black)"/>
</svg>
