<svg preserveAspectRatio="none" width="100%" height="100%" overflow="visible" style="display: block;" viewBox="0 0 14 17.0022" fill="none" xmlns="http://www.w3.org/2000/svg">
<path id="Primary" d="M10.6625 0.122309C10.9469 0.309809 11.0687 0.662934 10.9625 0.984809L9.125 6.50043H12.9031C13.5094 6.50043 14 6.99106 14 7.59731C14 7.90981 13.8687 8.20668 13.6344 8.41293L4.25 16.8098C3.99687 17.0379 3.62188 17.0661 3.3375 16.8786C3.05313 16.6911 2.93125 16.3379 3.0375 16.0161L4.875 10.5004H1.09687C0.490625 10.5004 0 10.0098 0 9.40356C0 9.09418 0.13125 8.79731 0.365625 8.58793L9.75 0.191059C10.0031 -0.0370661 10.3781 -0.0620661 10.6625 0.122309ZM2.15313 9.00043H5.91563C6.15625 9.00043 6.38438 9.11606 6.525 9.31293C6.66563 9.50981 6.70313 9.75981 6.62813 9.98793L5.35313 13.8098L11.8469 8.00043H8.08438C7.84375 8.00043 7.61562 7.88481 7.475 7.68793C7.33437 7.49106 7.29687 7.24106 7.37187 7.01293L8.64688 3.19106L2.15313 9.00043Z" fill="var(--fill-0, black)"/>
</svg>
