<svg preserveAspectRatio="none" width="100%" height="100%" overflow="visible" style="display: block;" viewBox="0 0 27.5 17.1875" fill="none" xmlns="http://www.w3.org/2000/svg">
<path id="Secondary" opacity="0.4" d="M0 3.4375V13.75C0 15.646 1.5415 17.1875 3.4375 17.1875H24.0625C25.9585 17.1875 27.5 15.646 27.5 13.75V3.4375C27.5 1.5415 25.9585 0 24.0625 0H3.4375C1.5415 0 0 1.5415 0 3.4375ZM6.875 5.15625C6.875 5.61209 6.69392 6.04926 6.37159 6.37159C6.04926 6.69392 5.61209 6.875 5.15625 6.875C4.70041 6.875 4.26324 6.69392 3.94091 6.37159C3.61858 6.04926 3.4375 5.61209 3.4375 5.15625C3.4375 4.70041 3.61858 4.26324 3.94091 3.94091C4.26324 3.61858 4.70041 3.4375 5.15625 3.4375C5.61209 3.4375 6.04926 3.61858 6.37159 3.94091C6.69392 4.26324 6.875 4.70041 6.875 5.15625ZM7.87939 13.0571C7.65918 12.6328 7.69141 12.1172 7.96533 11.7251L10.9731 7.42822C11.2148 7.08447 11.6069 6.88037 12.0312 6.88037C12.4556 6.88037 12.8477 7.08447 13.0894 7.42822L13.8843 8.56689L16.1724 5.65039C16.4194 5.33887 16.79 5.15625 17.1875 5.15625C17.585 5.15625 17.9556 5.33887 18.2026 5.65039L22.9292 11.666C23.2354 12.0527 23.2891 12.5845 23.0742 13.0249C22.8594 13.4653 22.4082 13.75 21.9141 13.75H9.02344C8.54541 13.75 8.09961 13.4814 7.87939 13.0571Z" fill="var(--fill-0, black)"/>
</svg>
