<svg preserveAspectRatio="none" width="100%" height="100%" overflow="visible" style="display: block;" viewBox="0 0 20 20" fill="none" xmlns="http://www.w3.org/2000/svg">
<g id="party-horn">
<path id="Primary" d="M3 3C3 2.73478 3.10536 2.48043 3.29289 2.29289C3.48043 2.10536 3.73478 2 4 2C4.26522 2 4.51957 2.10536 4.70711 2.29289C4.89464 2.48043 5 2.73478 5 3C5 3.26522 4.89464 3.51957 4.70711 3.70711C4.51957 3.89464 4.26522 4 4 4C3.73478 4 3.48043 3.89464 3.29289 3.70711C3.10536 3.51957 3 3.26522 3 3ZM16 7C16 6.73478 16.1054 6.48043 16.2929 6.29289C16.4804 6.10536 16.7348 6 17 6C17.2652 6 17.5196 6.10536 17.7071 6.29289C17.8946 6.48043 18 6.73478 18 7C18 7.26522 17.8946 7.51957 17.7071 7.70711C17.5196 7.89464 17.2652 8 17 8C16.7348 8 16.4804 7.89464 16.2929 7.70711C16.1054 7.51957 16 7.26522 16 7ZM17 15C17.2652 15 17.5196 15.1054 17.7071 15.2929C17.8946 15.4804 18 15.7348 18 16C18 16.2652 17.8946 16.5196 17.7071 16.7071C17.5196 16.8946 17.2652 17 17 17C16.7348 17 16.4804 16.8946 16.2929 16.7071C16.1054 16.5196 16 16.2652 16 16C16 15.7348 16.1054 15.4804 16.2929 15.2929C16.4804 15.1054 16.7348 15 17 15ZM7.21875 6.78125C6.925 6.4875 6.925 6.0125 7.21875 5.72187L7.47813 5.4625C8 4.94062 8.32813 4.25625 8.40938 3.52188L8.50313 2.66562C8.55 2.25625 8.92188 1.95937 9.33438 2.00312C9.74688 2.04687 10.0438 2.41875 9.99688 2.83125L9.90313 3.6875C9.78438 4.75937 9.30313 5.75938 8.54063 6.52188L8.28125 6.78125C7.9875 7.075 7.5125 7.075 7.22188 6.78125H7.21875ZM13.2187 11.7188L13.475 11.4625C14.2375 10.7 15.2375 10.2188 16.3094 10.1L17.1656 10.0063C17.5781 9.95938 17.9469 10.2562 17.9937 10.6687C18.0406 11.0812 17.7437 11.45 17.3312 11.4969L16.475 11.5906C15.7406 11.6719 15.0562 12 14.5344 12.5219L14.2812 12.7813C13.9875 13.075 13.5125 13.075 13.2219 12.7813C12.9312 12.4875 12.9281 12.0125 13.2219 11.7219L13.2187 11.7188ZM17.8219 2.26562C18.0906 2.58125 18.05 3.05625 17.7344 3.32187L17.4219 3.5875C16.9594 3.97812 16.3687 4.18437 15.7656 4.16875C15.2469 4.15625 14.8094 4.55625 14.7781 5.075L14.7219 6.0125C14.6437 7.34062 13.525 8.36563 12.1969 8.33125C11.9594 8.325 11.7281 8.40625 11.55 8.55937L11.2375 8.825C10.9219 9.09375 10.4469 9.05313 10.1812 8.7375C9.91562 8.42188 9.95312 7.94688 10.2687 7.68125L10.5812 7.41563C11.0437 7.025 11.6344 6.81875 12.2375 6.83438C12.7562 6.84688 13.1938 6.44687 13.225 5.92812L13.2812 4.99062C13.3594 3.6625 14.4781 2.6375 15.8062 2.67188C16.0437 2.67813 16.275 2.59687 16.4531 2.44375L16.7656 2.17812C17.0812 1.90937 17.5562 1.95 17.8219 2.26562ZM3.85312 16.1469L6.56875 15.1281L4.87188 13.4312L3.85312 16.1469ZM10.1062 13.8031L6.2 9.89688L5.45312 11.8906L8.1125 14.55L10.1062 13.8031ZM5.06562 8.64375C5.31562 7.975 6.20313 7.78125 6.70938 8.2875L11.7156 13.2906C12.2219 13.7969 12.0281 14.6844 11.3594 14.9344L3.35312 17.9375C2.56562 18.2313 1.76875 17.4375 2.0625 16.65L5.06562 8.64375Z" fill="var(--fill-0, black)"/>
</g>
</svg>
