<svg preserveAspectRatio="none" width="100%" height="100%" overflow="visible" style="display: block;" viewBox="0 0 16 16" fill="none" xmlns="http://www.w3.org/2000/svg">
<path id="Primary" d="M8 0C11.7375 0 14.8719 2.5625 15.7531 6.025C15.8875 6.55938 15.4937 7.0625 14.9469 7.13125L10.975 7.62813L11.8438 10.5H14.25C15.2156 10.5 16 11.2844 16 12.25V14.5562C16 15.3531 15.3531 16 14.5562 16C13.0031 16 11.6344 14.9844 11.1844 13.5L10.7312 12H9.44063C9.47813 12.1562 9.5 12.3156 9.5 12.4781C9.5 13.5937 8.59375 14.5 7.47813 14.5H7.41875C7.14375 14.5 6.87187 14.4469 6.61562 14.3406L1.40313 12.1687C1.25313 12.1062 1.12187 12.0094 1.01875 11.8813L0.93125 11.7469C0.3375 10.6281 0 9.35312 0 8C0 3.58125 3.58125 0 8 0ZM12.6219 13.0656C12.875 13.9 13.6344 14.475 14.5 14.4969V12.25C14.5 12.1125 14.3875 12 14.25 12H12.3L12.6219 13.0656ZM8 1.5C4.40937 1.5 1.5 4.40937 1.5 8C1.5 9.02813 1.74063 9.99687 2.16563 10.8594L7.19063 12.9531L7.3 12.9875C7.3375 12.9938 7.375 13 7.41563 13H7.475C7.72812 13 7.9375 12.8219 7.9875 12.5844L7.99687 12.4781C7.99687 12.3969 7.97813 12.3187 7.94063 12.2437L6.75 9.85938L6.69375 9.73438C6.58437 9.48125 6.51875 9.20938 6.50313 8.92813L6.5 8.7875C6.5 7.57813 7.4 6.5625 8.59688 6.4125L14.0875 5.725C13.1656 3.25625 10.7875 1.5 8 1.5ZM5 11C4.73478 11 4.48043 10.8946 4.29289 10.7071C4.10536 10.5196 4 10.2652 4 10C4 9.73478 4.10536 9.48043 4.29289 9.29289C4.48043 9.10536 4.73478 9 5 9C5.26522 9 5.51957 9.10536 5.70711 9.29289C5.89464 9.48043 6 9.73478 6 10C6 10.2652 5.89464 10.5196 5.70711 10.7071C5.51957 10.8946 5.26522 11 5 11ZM8.78438 7.90312C8.3375 7.95937 8 8.34062 8 8.79062C8 8.92812 8.03125 9.06563 8.09375 9.19063L8.75 10.5031H10.275L9.4625 7.81875L8.78125 7.90312H8.78438Z" fill="var(--fill-0, black)"/>
</svg>
